<?xml version="1.0" encoding="UTF-8" standalone="no"?>
<!-- Created with Inkscape (http://www.inkscape.org/) -->

<svg
   width="32.068001mm"
   height="21.969999mm"
   viewBox="0 0 45.811432 31.385715"
   version="1.1"
   id="svg1"
   sodipodi:docname="LogoInkluRide.svg"
   inkscape:version="1.3.2 (091e20e, 2023-11-25, custom)"
   inkscape:export-filename="LogoInkluRide.png"
   inkscape:export-xdpi="96"
   inkscape:export-ydpi="96"
   xmlns:inkscape="http://www.inkscape.org/namespaces/inkscape"
   xmlns:sodipodi="http://sodipodi.sourceforge.net/DTD/sodipodi-0.dtd"
   xmlns="http://www.w3.org/2000/svg"
   xmlns:svg="http://www.w3.org/2000/svg">
  <sodipodi:namedview
     id="namedview1"
     pagecolor="#ffffff"
     bordercolor="#000000"
     borderopacity="0.25"
     inkscape:showpageshadow="2"
     inkscape:pageopacity="0.0"
     inkscape:pagecheckerboard="false"
     inkscape:deskcolor="#d1d1d1"
     inkscape:document-units="mm"
     inkscape:zoom="2.9255612"
     inkscape:cx="84.940968"
     inkscape:cy="67.679323"
     inkscape:window-width="1350"
     inkscape:window-height="1040"
     inkscape:window-x="2491"
     inkscape:window-y="30"
     inkscape:window-maximized="0"
     inkscape:current-layer="layer1"
     labelstyle="default"
     inkscape:clip-to-page="true"
     showgrid="false" />
  <defs
     id="defs1">
    <filter
       style="color-interpolation-filters:sRGB"
       inkscape:label="Drop Shadow"
       id="filter23"
       x="-0.011659594"
       y="-0.05711266"
       width="1.0233192"
       height="1.1142253">
      <feFlood
         result="flood"
         in="SourceGraphic"
         flood-opacity="0.313726"
         flood-color="rgb(0,0,0)"
         id="feFlood22" />
      <feGaussianBlur
         result="blur"
         in="SourceGraphic"
         stdDeviation="0.100000"
         id="feGaussianBlur22" />
      <feOffset
         result="offset"
         in="blur"
         dx="0.000000"
         dy="0.000000"
         id="feOffset22" />
      <feComposite
         result="comp1"
         operator="in"
         in="flood"
         in2="offset"
         id="feComposite22" />
      <feComposite
         result="comp2"
         operator="over"
         in="SourceGraphic"
         in2="comp1"
         id="feComposite23" />
    </filter>
    <filter
       style="color-interpolation-filters:sRGB"
       inkscape:label="Drop Shadow"
       id="filter25"
       x="-0.014119223"
       y="-0.063682966"
       width="1.0282384"
       height="1.1273659">
      <feFlood
         result="flood"
         in="SourceGraphic"
         flood-opacity="0.313726"
         flood-color="rgb(0,0,0)"
         id="feFlood23" />
      <feGaussianBlur
         result="blur"
         in="SourceGraphic"
         stdDeviation="0.100000"
         id="feGaussianBlur23" />
      <feOffset
         result="offset"
         in="blur"
         dx="0.000000"
         dy="0.000000"
         id="feOffset23" />
      <feComposite
         result="comp1"
         operator="in"
         in="flood"
         in2="offset"
         id="feComposite24" />
      <feComposite
         result="comp2"
         operator="over"
         in="SourceGraphic"
         in2="comp1"
         id="feComposite25" />
    </filter>
  </defs>
  <g
     inkscape:label="Layer 1"
     inkscape:groupmode="layer"
     id="layer1"
     transform="translate(-82.020831,-134.40833)">
    <path
       style="font-size:14.4434px;line-height:0px;font-family:Anton;-inkscape-font-specification:Anton;letter-spacing:0.318457px;baseline-shift:baseline;fill:#565656;fill-opacity:1;stroke:#ffffff;stroke-width:0.765556;stroke-linecap:round;stroke-dasharray:none;stroke-opacity:1;paint-order:stroke fill markers"
       d="m 84.778894,154.29045 v -14.16663 h 3.383894 v 14.16663 z m 5.152928,0 v -14.16663 h 3.38389 v 1.80389 c 0.12593,-0.54149 0.35918,-1.00113 0.699472,-1.37889 0.34657,-0.38407 0.82549,-0.5761 1.43674,-0.5761 0.98302,0 1.6951,0.30221 2.1362,0.90665 0.4474,0.60445 0.67109,1.43241 0.67109,2.48387 v 10.92721 h -3.33661 V 143.7127 c 0,-0.27704 -0.0567,-0.53203 -0.17016,-0.765 -0.11334,-0.23926 -0.30877,-0.3589 -0.58603,-0.3589 -0.25837,0 -0.450552,0.0914 -0.576582,0.2739 -0.11964,0.17629 -0.19533,0.39981 -0.22684,0.67056 -0.0315,0.26444 -0.0473,0.52888 -0.0473,0.79333 v 9.96386 z m 10.077528,0 v -16.62218 h 3.34607 v 7.33832 l 1.62578,-4.88277 h 3.50678 l -2.12674,6.15777 2.70333,8.00886 h -3.6013 l -2.10785,-6.67722 v 6.67722 z m 9.92629,0 v -16.62218 h 3.44061 v 16.62218 z m 7.96023,0.15111 c -0.75617,0 -1.3359,-0.15741 -1.73921,-0.47222 -0.39699,-0.31483 -0.66795,-0.75241 -0.81289,-1.31278 -0.14492,-0.56666 -0.21739,-1.22777 -0.21739,-1.98334 v -10.5494 h 3.40279 v 10.15274 c 0,0.56668 0.0441,0.96334 0.13223,1.19001 0.0882,0.22036 0.29613,0.33055 0.62384,0.33055 0.35289,0 0.57343,-0.15742 0.66165,-0.47223 0.0944,-0.31481 0.14178,-0.72092 0.14178,-1.21831 v -9.98276 h 3.37444 v 14.16663 h -3.38381 v -1.51111 c -0.21425,0.54148 -0.47262,0.95389 -0.77509,1.23722 -0.29617,0.28333 -0.76562,0.425 -1.40838,0.425 z"
       id="text2-2"
       aria-label="inklu"
       sodipodi:nodetypes="ccccccccccscsccscsccsccccccccccccccccccccccsccscscscccccccc" />
    <text
       xml:space="preserve"
       style="font-style:normal;font-variant:normal;font-weight:normal;font-stretch:normal;font-size:8.46667px;line-height:0px;font-family:Anton;-inkscape-font-specification:Anton;letter-spacing:1.24448px;word-spacing:0.264583px;white-space:pre;inline-size:26.4837;display:inline;fill:#2d9d97;stroke:#ffffff;stroke-width:0.235072;stroke-linecap:square;stroke-linejoin:miter;stroke-dasharray:none;stroke-opacity:1;paint-order:markers fill stroke"
       x="45.93771"
       y="83.968475"
       id="text3-1"
       transform="matrix(1.9224613,0,-0.4188268,1.8399208,38.67572,10.031288)"><tspan
         x="45.93771"
         y="83.968475"
         id="tspan1">RIDE</tspan></text>
    <g
       style="fill:#2d849d;fill-opacity:1;stroke:#ffffff;stroke-width:2.33459;stroke-linecap:square;stroke-linejoin:miter;stroke-dasharray:none;stroke-opacity:1;paint-order:stroke markers fill"
       id="g89"
       transform="matrix(0.70297586,0,0,0.70297586,81.471689,133.41216)">
      <path
         d="M 2,5.7571777 C 2,3.2958862 3.4931408,1.8526097 5.7706557,4.2188627 6.8863834,5.3338373 7.3592345,5.7248415 7.4123111,5.75437 9.9361221,7.1584672 6.6897656,5.26338 7.6324944,4.2188627 9.7932075,1.8248525 11.670914,3.4770761 11.670914,5.7356666 c 0,3.4118458 -4.2543574,6.1021254 -4.60959,6.1286414 C 6.6823154,11.82745 2,9.1614012 2,5.7571777 Z"
         fill="#1c274c"
         id="path1"
         sodipodi:nodetypes="scsssss"
         style="fill:#2d849d;fill-opacity:1;stroke:#ffffff;stroke-width:2.33459;stroke-linecap:square;stroke-linejoin:miter;stroke-dasharray:none;stroke-opacity:1;paint-order:stroke markers fill" />
    </g>
  </g>
</svg>
